# xmcd CD database file
#
# Track frame offsets:
#	150
#	9751
#	21136
#	27511
#	42212
#	60537
#	81542
#	332550
#
# Disc length: 4440 seconds
#
# Revision: 0
# Processed by: cddbd v1.5.1PL0 Copyright (c) Steve Scherf et al.
# Submitted via: CDex 1.51
#
DISCID=5b115608
DTITLE=BEAT CRUSADERS - A PopCALYPSE NOW 〜地獄のPop示録〜
DYEAR=2004
DGENRE=Rock
TTITLE0=LAST GOOD-BYE
TTITLE1=JAPANESE GIRL
TTITLE2=CHRISTINE
TTITLE3=GYMNASIUM
TTITLE4=LOVE DISCHORD
TTITLE5=BE MY WIFE
TTITLE6=DATA 07
TTITLE7=DATA 08
EXTD=YEAR: 2004
EXTT0=
EXTT1=
EXTT2=
EXTT3=
EXTT4=
EXTT5=
EXTT6=
EXTT7=
PLAYORDER=
